<?xml version="1.0" encoding="utf-8"?>
<!-- Generator: Adobe Illustrator 25.0.0, SVG Export Plug-In . SVG Version: 6.00 Build 0)  -->
<svg version="1.1" id="Warstwa_1" xmlns="http://www.w3.org/2000/svg" xmlns:xlink="http://www.w3.org/1999/xlink" x="0px" y="0px"
	 viewBox="0 0 36 36" style="enable-background:new 0 0 36 36;" xml:space="preserve">
<style type="text/css">
	.st0{fill:#FFCC4D;}
	.st1{fill:#664500;}
	.st2{fill:#F4900C;}
</style>
<circle class="st0" cx="17.6" cy="16.8" r="14"/>
<path class="st1" d="M11.8,21.2c0,0.1,0.9,3.4,5.8,3.4c4.9,0,5.8-3.3,5.8-3.4c0-0.2,0-0.3-0.2-0.4c-0.2-0.1-0.3-0.1-0.5,0.1
	c0,0-1.5,1.4-5.2,1.4s-5.2-1.4-5.2-1.4c-0.1-0.1-0.2-0.1-0.3-0.1c-0.1,0-0.1,0-0.2,0C11.8,20.8,11.7,21,11.8,21.2z"/>
<ellipse class="st1" cx="12.9" cy="13.3" rx="1.9" ry="2.7"/>
<ellipse class="st1" cx="22.3" cy="13.3" rx="1.9" ry="2.7"/>
<path class="st2" d="M15.3,26.5c0,0,0.8-0.6,0.1-1.3c-0.6-0.7-1.3,0-1.3,0l-3.2,3c-0.1-0.2-0.4-0.6-0.4-0.7l4.5-4.2
	c0,0,0.8-0.6,0.1-1.3c-0.6-0.7-1.3,0-1.3,0l-4.2,3.9c-0.1-0.1-0.4-0.4-0.5-0.5L14,21c0,0,0.8-0.6,0.1-1.3c-0.6-0.7-1.3,0-1.3,0
	L8,24.3c-0.1-0.1-0.5-0.5-0.6-0.6l4.6-4.3c0,0,0.8-0.6,0.1-1.3c-0.6-0.7-1.3,0-1.3,0L6,22.8l-0.4,0.4l-0.2,0.2c0,0-0.4,0.6-0.8,0.1
	l1.4-3.2c0,0,0.5-0.8-0.4-1.3c-0.8-0.5-1.3,0.4-1.3,0.4l-1.3,2.1c-0.5,0.9-1.1,1.7-1.7,2.5c-2,2.4-1.6,6,0.8,8
	c2.2,1.8,5.4,1.7,7.5-0.2l0.3-0.3C10.1,31.4,15.3,26.5,15.3,26.5z"/>
<path class="st2" d="M20.7,26.5c0,0-0.8-0.6-0.1-1.3c0.6-0.7,1.3,0,1.3,0l3.2,3c0.1-0.2,0.4-0.6,0.4-0.7L21,23.4
	c0,0-0.8-0.6-0.1-1.3c0.6-0.7,1.3,0,1.3,0l4.2,3.9c0.1-0.1,0.4-0.4,0.5-0.5L22,21c0,0-0.8-0.6-0.1-1.3c0.6-0.7,1.3,0,1.3,0l4.9,4.6
	c0.1-0.1,0.5-0.5,0.6-0.6L24,19.5c0,0-0.8-0.6-0.1-1.3c0.6-0.7,1.3,0,1.3,0l4.8,4.5l0.4,0.4l0.2,0.2c0,0,0.4,0.6,0.8,0.1l-1.4-3.2
	c0,0-0.5-0.8,0.4-1.3c0.8-0.5,1.3,0.4,1.3,0.4l1.3,2.1c0.5,0.9,1.1,1.7,1.7,2.5c2,2.4,1.6,6-0.8,8c-2.2,1.8-5.4,1.7-7.5-0.2
	l-0.3-0.3C25.9,31.4,20.7,26.5,20.7,26.5z"/>
</svg>
