<svg version="1.1" id="Warstwa_1" xmlns="http://www.w3.org/2000/svg" xmlns:xlink="http://www.w3.org/1999/xlink" x="0px"
    y="0px" viewBox="0 0 512 512" style="enable-background:new 0 0 512 512;" xml:space="preserve">
    <style type="text/css">
        .st0 {
            fill: #F7FFFE;
        }

        .st1 {
            fill: none;
            stroke: #F7FFFE;
            stroke-width: 35;
            stroke-linecap: round;
            stroke-miterlimit: 10;
        }
    </style>
    <path class="st0" d="M75.3,251.5c2.4-2.4,4.9-4.6,7.6-6.5C72.3,223,76.7,195,95.8,176c3.9-3.9,8.1-7.2,12.6-9.8
	c-4.1-19.4,1.7-40.9,17.2-56.4s37.1-21.4,56.6-17.2c2.6-4.5,5.9-8.7,9.7-12.5c23.8-23.8,61.8-24.8,84.5-2.1l69.5,69.5
	c2.6-3.7,5.5-7.3,8.7-10.5c0,0,0,0,0,0c26.2-26.2,68.2-27.9,93.9-2.3c11.6,11.6,18.1,27.1,18.2,44l1.1,98.7
	c0.5,47.6-19,94.7-53.6,129.3l-19.9,19.9c-63.6,63.6-164.6,66.1-225.1,5.6l-96-96C50.5,313.3,51.4,275.4,75.3,251.5z M198,403.2
	c45.4,45.4,121.1,43.5,168.3-3.6l20.4-20.4c26.7-26.7,41.6-62.7,41.2-99.5l-1-96.9c-0.1-7.5-3.2-14.5-7.6-18.9
	c-12.7-12.7-29.1-6.8-36.8,0.9c-5.1,5.1-8.3,12.2-8.2,19.9l0.4,32.5c-0.5,1.5-1.3,3.2-2.5,4.4c-2.5,2.5-6.7,3-9.4,0.3L247.6,106.7
	c-7.6-7.6-20.2-7.3-27.6,0.2c-8,8-7.7,20-0.2,27.6l86.9,86.9c3.9,6.1,3.7,14.6-1.6,19.9c-5.3,5.3-13.2,5-17.7,0.4L181.2,136.4
	c-7.6-7.6-20.2-7.3-27.6,0.2c-8,8-7.7,20-0.2,27.6l105.2,105.2c3.9,6.1,3.7,14.6-1.5,19.8c-5.3,5.3-13.7,5.5-18.2,1l-87-87
	c-7.6-7.6-20.2-7.3-27.6,0.2c-8,8-7.7,20-0.2,27.6l87,87c3.4,5.6,3.2,14-2.1,19.3c-5.3,5.3-13.2,5-17.7,0.4l-60-60
	c-7.6-7.6-20.2-7.3-27.6,0.2c-8,8-7.7,20-0.2,27.6l96,96L198,403.2z" />
    <path class="st1" d="M292.8,47.6c13.2-10.6,32.1-12.3,48-4.4c22,11,31.6,37.1,21.2,57.9" />
    <path class="st1" d="M135.9,460.9c-15.5,9.6-36.4,9-53-1.6c-23-14.7-30.8-44.1-17.4-65.1" />
</svg>